<svg viewBox="130 87 352 128" fill="none" xmlns="http://www.w3.org/2000/svg">
<path d="M149.976 143V95.48H161.64V143H149.976ZM136.152 105.128V95.48H175.608V105.128H136.152ZM178.999 143V118.808V91.16H190.591V103.04C190.591 104 190.543 105.008 190.447 106.064C190.399 107.072 190.279 108.128 190.087 109.232C189.943 110.288 189.775 111.368 189.583 112.472C189.439 113.576 189.247 114.656 189.007 115.712H190.735C191.407 113.36 192.247 111.32 193.255 109.592C194.263 107.816 195.583 106.448 197.215 105.488C198.847 104.48 200.935 103.976 203.479 103.976C207.991 103.976 211.351 105.56 213.559 108.728C215.815 111.848 216.943 116.672 216.943 123.2V143H205.279V125.144C205.279 121.256 204.703 118.352 203.551 116.432C202.447 114.464 200.743 113.48 198.439 113.48C196.663 113.48 195.199 114.032 194.047 115.136C192.895 116.24 192.031 117.728 191.455 119.6C190.879 121.424 190.591 123.464 190.591 125.72V143H178.999ZM241.177 144.008C238.009 144.008 235.177 143.6 232.681 142.784C230.185 141.92 228.049 140.672 226.273 139.04C224.545 137.408 223.225 135.392 222.313 132.992C221.401 130.592 220.945 127.832 220.945 124.712C220.945 121.688 221.377 118.904 222.241 116.36C223.153 113.816 224.425 111.632 226.057 109.808C227.737 107.936 229.777 106.496 232.177 105.488C234.625 104.48 237.361 103.976 240.385 103.976C243.457 103.976 246.145 104.48 248.449 105.488C250.801 106.448 252.721 107.888 254.209 109.808C255.745 111.728 256.873 114.08 257.593 116.864C258.313 119.6 258.553 122.744 258.313 126.296L228.577 126.512V120.464L251.689 120.248L247.585 123.056C247.921 120.656 247.777 118.712 247.153 117.224C246.529 115.688 245.617 114.584 244.417 113.912C243.217 113.192 241.921 112.832 240.529 112.832C238.849 112.832 237.361 113.288 236.065 114.2C234.817 115.112 233.833 116.432 233.113 118.16C232.393 119.888 232.033 122 232.033 124.496C232.033 128.432 232.873 131.288 234.553 133.064C236.281 134.84 238.465 135.728 241.105 135.728C242.401 135.728 243.481 135.56 244.345 135.224C245.209 134.84 245.905 134.384 246.433 133.856C247.009 133.28 247.441 132.656 247.729 131.984C248.065 131.312 248.329 130.664 248.521 130.04L258.601 132.2C258.217 133.976 257.593 135.584 256.729 137.024C255.913 138.464 254.785 139.712 253.345 140.768C251.953 141.824 250.249 142.616 248.233 143.144C246.265 143.72 243.913 144.008 241.177 144.008ZM277.578 143V95.48H298.098C301.074 95.48 303.738 95.744 306.09 96.272C308.49 96.752 310.53 97.52 312.21 98.576C313.89 99.584 315.162 100.904 316.026 102.536C316.938 104.12 317.394 106.016 317.394 108.224C317.394 110.096 316.986 111.728 316.17 113.12C315.402 114.512 314.178 115.64 312.498 116.504C310.818 117.368 308.586 117.944 305.802 118.232V119.456C310.41 119.744 313.818 120.848 316.026 122.768C318.234 124.688 319.338 127.28 319.338 130.544C319.338 133.328 318.594 135.632 317.106 137.456C315.618 139.28 313.434 140.672 310.554 141.632C307.674 142.544 304.122 143 299.898 143H277.578ZM288.666 133.784H299.466C302.394 133.784 304.554 133.376 305.946 132.56C307.338 131.696 308.034 130.352 308.034 128.528C308.034 126.512 307.194 125 305.514 123.992C303.834 122.984 301.266 122.48 297.81 122.48H288.666V133.784ZM288.666 115.424H296.226C299.634 115.424 302.13 114.968 303.714 114.056C305.298 113.096 306.09 111.68 306.09 109.808C306.09 107.984 305.346 106.664 303.858 105.848C302.418 104.984 300.21 104.552 297.234 104.552H288.666V115.424ZM323.394 143V131.48L342.33 119.6C343.098 119.12 343.89 118.568 344.706 117.944C345.522 117.32 346.266 116.6 346.938 115.784C347.658 114.968 348.234 114.08 348.666 113.12C349.098 112.112 349.314 111.008 349.314 109.808C349.314 108.56 349.026 107.504 348.45 106.64C347.922 105.776 347.13 105.128 346.074 104.696C345.066 104.216 343.818 103.976 342.33 103.976C340.65 103.976 339.282 104.24 338.226 104.768C337.218 105.296 336.426 106.04 335.85 107C335.322 107.912 334.962 108.968 334.77 110.168C334.578 111.368 334.482 112.616 334.482 113.912L323.322 111.536C323.226 107.936 323.946 104.864 325.482 102.32C327.018 99.728 329.226 97.736 332.106 96.344C335.034 94.952 338.514 94.256 342.546 94.256C346.098 94.256 349.242 94.808 351.978 95.912C354.762 97.016 356.922 98.672 358.458 100.88C360.042 103.04 360.834 105.752 360.834 109.016C360.834 111.416 360.426 113.6 359.61 115.568C358.794 117.488 357.738 119.192 356.442 120.68C355.146 122.168 353.706 123.488 352.122 124.64C350.586 125.744 349.098 126.704 347.658 127.52L337.074 133.424V134.072L361.41 133.64V143H323.394ZM367.406 143V95.48H387.926C390.902 95.48 393.566 95.744 395.918 96.272C398.318 96.752 400.358 97.52 402.038 98.576C403.718 99.584 404.99 100.904 405.854 102.536C406.766 104.12 407.222 106.016 407.222 108.224C407.222 110.096 406.814 111.728 405.998 113.12C405.23 114.512 404.006 115.64 402.326 116.504C400.646 117.368 398.414 117.944 395.63 118.232V119.456C400.238 119.744 403.646 120.848 405.854 122.768C408.062 124.688 409.166 127.28 409.166 130.544C409.166 133.328 408.422 135.632 406.934 137.456C405.446 139.28 403.262 140.672 400.382 141.632C397.502 142.544 393.95 143 389.726 143H367.406ZM378.494 133.784H389.294C392.222 133.784 394.382 133.376 395.774 132.56C397.166 131.696 397.862 130.352 397.862 128.528C397.862 126.512 397.022 125 395.342 123.992C393.662 122.984 391.094 122.48 387.638 122.48H378.494V133.784ZM378.494 115.424H386.054C389.462 115.424 391.958 114.968 393.542 114.056C395.126 113.096 395.918 111.68 395.918 109.808C395.918 107.984 395.174 106.664 393.686 105.848C392.246 104.984 390.038 104.552 387.062 104.552H378.494V115.424Z" fill="#F5F0E8"/>
<path d="M467 206.936C464.504 206.936 462.632 206.408 461.384 205.352C460.184 204.296 459.584 202.664 459.584 200.456C459.584 198.2 460.184 196.544 461.384 195.488C462.632 194.432 464.504 193.904 467 193.904C469.544 193.904 471.44 194.432 472.688 195.488C473.936 196.544 474.56 198.2 474.56 200.456C474.56 204.776 472.04 206.936 467 206.936Z" fill="#D4E84A"/>
<path d="M149.976 206V158.48H161.64V206H149.976ZM136.152 168.128V158.48H175.608V168.128H136.152ZM178.999 206V167.984H190.591V206H178.999ZM184.831 162.656C182.623 162.656 180.919 162.2 179.719 161.288C178.567 160.328 177.991 158.984 177.991 157.256C177.991 155.432 178.567 154.064 179.719 153.152C180.919 152.192 182.623 151.712 184.831 151.712C187.087 151.712 188.791 152.192 189.943 153.152C191.143 154.064 191.743 155.408 191.743 157.184C191.743 158.96 191.143 160.328 189.943 161.288C188.791 162.2 187.087 162.656 184.831 162.656ZM197.441 206V183.104V167.984H206.801L206.945 179.144H208.385C209.009 176.456 209.897 174.2 211.049 172.376C212.201 170.552 213.665 169.208 215.441 168.344C217.217 167.432 219.305 166.976 221.705 166.976C226.169 166.976 229.553 168.536 231.857 171.656C234.209 174.776 235.385 179.744 235.385 186.56V206H223.721V187.856C223.721 183.92 223.145 181.064 221.993 179.288C220.889 177.464 219.233 176.552 217.025 176.552C215.201 176.552 213.689 177.104 212.489 178.208C211.337 179.312 210.473 180.776 209.897 182.6C209.321 184.424 209.033 186.464 209.033 188.72V206H197.441ZM241.546 206V154.088H252.922V182.744C254.314 181.736 255.61 180.656 256.81 179.504C258.058 178.352 259.186 177.152 260.194 175.904C261.25 174.656 262.186 173.384 263.002 172.088C263.866 170.744 264.61 169.376 265.234 167.984H278.483C277.858 169.856 276.994 171.728 275.89 173.6C274.786 175.424 273.442 177.128 271.858 178.712C270.274 180.248 268.378 181.568 266.17 182.672C264.01 183.776 261.562 184.52 258.826 184.904V186.2C262.282 185.528 265.114 185.528 267.322 186.2C269.578 186.824 271.378 187.856 272.722 189.296C274.066 190.736 275.098 192.416 275.819 194.336C276.538 196.256 277.138 198.152 277.618 200.024L279.131 206H266.53L265.81 202.4C265.33 200.048 264.754 198.032 264.082 196.352C263.458 194.672 262.546 193.376 261.346 192.464C260.146 191.504 258.418 191.024 256.162 191.024H252.922V206H241.546ZM300.279 207.008C297.111 207.008 294.279 206.6 291.783 205.784C289.287 204.92 287.151 203.672 285.375 202.04C283.647 200.408 282.327 198.392 281.415 195.992C280.503 193.592 280.047 190.832 280.047 187.712C280.047 184.688 280.479 181.904 281.343 179.36C282.255 176.816 283.527 174.632 285.159 172.808C286.839 170.936 288.879 169.496 291.279 168.488C293.727 167.48 296.463 166.976 299.487 166.976C302.559 166.976 305.247 167.48 307.551 168.488C309.903 169.448 311.823 170.888 313.311 172.808C314.847 174.728 315.975 177.08 316.695 179.864C317.415 182.6 317.655 185.744 317.415 189.296L287.679 189.512V183.464L310.791 183.248L306.687 186.056C307.023 183.656 306.879 181.712 306.255 180.224C305.631 178.688 304.719 177.584 303.519 176.912C302.319 176.192 301.023 175.832 299.631 175.832C297.951 175.832 296.463 176.288 295.167 177.2C293.919 178.112 292.935 179.432 292.215 181.16C291.495 182.888 291.135 185 291.135 187.496C291.135 191.432 291.975 194.288 293.655 196.064C295.383 197.84 297.567 198.728 300.207 198.728C301.503 198.728 302.583 198.56 303.447 198.224C304.311 197.84 305.007 197.384 305.535 196.856C306.111 196.28 306.543 195.656 306.831 194.984C307.167 194.312 307.431 193.664 307.623 193.04L317.703 195.2C317.319 196.976 316.695 198.584 315.831 200.024C315.015 201.464 313.887 202.712 312.447 203.768C311.055 204.824 309.351 205.616 307.335 206.144C305.367 206.72 303.015 207.008 300.279 207.008ZM322.305 206V188.36V167.984H331.809L332.025 180.872H333.465C333.801 177.512 334.425 174.848 335.337 172.88C336.297 170.864 337.641 169.4 339.369 168.488C341.145 167.576 343.329 167.12 345.921 167.12C346.305 167.12 346.737 167.144 347.217 167.192C347.697 167.192 348.249 167.24 348.873 167.336L348.441 179.72C347.673 179.336 346.833 179.096 345.921 179C345.057 178.856 344.289 178.784 343.617 178.784C341.745 178.784 340.113 179.144 338.721 179.864C337.377 180.584 336.297 181.688 335.481 183.176C334.713 184.664 334.209 186.536 333.969 188.792V206H322.305ZM370.349 207.008C367.181 207.008 364.349 206.6 361.853 205.784C359.357 204.92 357.221 203.672 355.445 202.04C353.717 200.408 352.397 198.392 351.485 195.992C350.573 193.592 350.117 190.832 350.117 187.712C350.117 184.688 350.549 181.904 351.413 179.36C352.325 176.816 353.597 174.632 355.229 172.808C356.909 170.936 358.949 169.496 361.349 168.488C363.797 167.48 366.533 166.976 369.557 166.976C372.629 166.976 375.317 167.48 377.621 168.488C379.973 169.448 381.893 170.888 383.381 172.808C384.917 174.728 386.045 177.08 386.765 179.864C387.485 182.6 387.725 185.744 387.485 189.296L357.749 189.512V183.464L380.861 183.248L376.757 186.056C377.093 183.656 376.949 181.712 376.325 180.224C375.701 178.688 374.789 177.584 373.589 176.912C372.389 176.192 371.093 175.832 369.701 175.832C368.021 175.832 366.533 176.288 365.237 177.2C363.989 178.112 363.005 179.432 362.285 181.16C361.565 182.888 361.205 185 361.205 187.496C361.205 191.432 362.045 194.288 363.725 196.064C365.453 197.84 367.637 198.728 370.277 198.728C371.573 198.728 372.653 198.56 373.517 198.224C374.381 197.84 375.077 197.384 375.605 196.856C376.181 196.28 376.613 195.656 376.901 194.984C377.237 194.312 377.501 193.664 377.693 193.04L387.773 195.2C387.389 196.976 386.765 198.584 385.901 200.024C385.085 201.464 383.957 202.712 382.517 203.768C381.125 204.824 379.421 205.616 377.405 206.144C375.437 206.72 373.085 207.008 370.349 207.008ZM392.375 206V188.36V167.984H401.879L402.095 180.872H403.535C403.871 177.512 404.495 174.848 405.407 172.88C406.367 170.864 407.711 169.4 409.439 168.488C411.215 167.576 413.399 167.12 415.991 167.12C416.375 167.12 416.807 167.144 417.287 167.192C417.767 167.192 418.319 167.24 418.943 167.336L418.511 179.72C417.743 179.336 416.903 179.096 415.991 179C415.127 178.856 414.359 178.784 413.687 178.784C411.815 178.784 410.183 179.144 408.791 179.864C407.447 180.584 406.367 181.688 405.551 183.176C404.783 184.664 404.279 186.536 404.039 188.792V206H392.375ZM437.9 207.008C435.356 207.008 433.052 206.768 430.988 206.288C428.924 205.856 427.124 205.208 425.588 204.344C424.052 203.48 422.78 202.448 421.772 201.248C420.812 200 420.14 198.632 419.756 197.144L428.396 193.328C428.732 194.144 429.308 194.984 430.124 195.848C430.988 196.664 432.116 197.336 433.508 197.864C434.948 198.392 436.676 198.656 438.692 198.656C440.612 198.656 442.1 198.392 443.156 197.864C444.26 197.288 444.812 196.472 444.812 195.416C444.812 194.648 444.5 194.048 443.876 193.616C443.3 193.136 442.412 192.728 441.212 192.392C440.012 192.008 438.524 191.648 436.748 191.312C434.924 190.928 433.076 190.496 431.204 190.016C429.332 189.488 427.58 188.792 425.948 187.928C424.316 187.016 422.996 185.84 421.988 184.4C421.028 182.912 420.548 181.04 420.548 178.784C420.548 176.432 421.172 174.392 422.42 172.664C423.668 170.888 425.516 169.496 427.964 168.488C430.46 167.48 433.484 166.976 437.036 166.976C440.204 166.976 442.988 167.384 445.388 168.2C447.788 169.016 449.78 170.192 451.364 171.728C452.996 173.216 454.124 175.016 454.748 177.128L445.46 180.44C445.22 179.384 444.716 178.472 443.948 177.704C443.228 176.936 442.292 176.36 441.14 175.976C440.036 175.544 438.716 175.328 437.18 175.328C435.308 175.328 433.844 175.616 432.788 176.192C431.78 176.768 431.276 177.536 431.276 178.496C431.276 179.264 431.612 179.912 432.284 180.44C433.004 180.92 434.012 181.328 435.308 181.664C436.604 182 438.14 182.36 439.916 182.744C441.788 183.128 443.636 183.584 445.46 184.112C447.332 184.592 449.012 185.264 450.5 186.128C452.036 186.944 453.236 188.048 454.1 189.44C455.012 190.784 455.468 192.536 455.468 194.696C455.468 197.24 454.796 199.448 453.452 201.32C452.108 203.144 450.116 204.56 447.476 205.568C444.884 206.528 441.692 207.008 437.9 207.008Z" fill="#D4E84A"/>
</svg>
